<?xml version="1.0" standalone="no"?>
<!DOCTYPE svg PUBLIC "-//W3C//DTD SVG 20010904//EN"
 "http://www.w3.org/TR/2001/REC-SVG-20010904/DTD/svg10.dtd">
<svg version="1.0" xmlns="http://www.w3.org/2000/svg"
 width="500.000000pt" height="500.000000pt" viewBox="0 0 500.000000 500.000000"
 preserveAspectRatio="xMidYMid meet">
<metadata>
Created by potrace 1.14, written by Peter Selinger 2001-2017
</metadata>
<g transform="translate(0.000000,500.000000) scale(0.100000,-0.100000)"
fill="#000000" stroke="none">
<path d="M0 2500 l0 -2500 2500 0 2500 0 0 2500 0 2500 -2500 0 -2500 0 0
-2500z m1889 750 c134 -10 235 -27 343 -57 50 -13 57 -18 53 -37 -2 -11 -7
-42 -10 -68 l-6 -47 -106 55 c-219 112 -412 148 -586 110 -137 -31 -207 -96
-207 -192 0 -95 63 -154 280 -262 l135 -67 -194 -3 c-190 -2 -194 -2 -236 22
-95 56 -153 156 -142 245 19 163 187 275 452 300 44 5 82 9 85 10 3 0 65 -4
139 -9z m909 -297 l-3 -268 -97 -3 -98 -3 0 271 0 270 100 0 100 0 -2 -267z
m851 254 c-8 -7 -150 -125 -315 -263 -271 -227 -342 -281 -332 -255 1 5 73 67
158 137 187 155 285 252 335 333 l38 61 66 0 c54 -1 63 -3 50 -13z m-276 -484
c65 -38 49 -43 -138 -43 -105 0 -174 4 -170 9 5 10 109 46 155 55 44 8 121 -3
153 -21z m-1650 -140 c3 -5 -14 -6 -37 -5 -29 3 -46 -1 -55 -12 -18 -21 -7
-34 37 -42 40 -7 82 -29 82 -44 0 -32 -91 -55 -128 -31 -7 4 11 6 40 3 42 -3
57 0 67 12 19 22 6 34 -54 49 -58 15 -80 41 -51 63 21 15 91 20 99 7z m200
-64 c21 -39 36 -73 34 -76 -3 -2 -8 5 -12 16 -5 18 -14 21 -65 21 -50 0 -60
-3 -65 -20 -3 -11 -11 -20 -17 -20 -6 0 -4 10 4 23 9 12 27 46 42 75 14 28 30
52 34 52 4 0 24 -32 45 -71z m104 -41 c-2 -24 -4 -7 -4 37 0 44 2 63 4 43 2
-21 2 -57 0 -80z m83 0 c-6 -35 -8 -29 -8 37 0 59 2 71 7 43 4 -20 4 -56 1
-80z m120 88 c0 -8 -8 -20 -17 -27 -16 -13 -17 -12 -4 3 7 10 11 25 7 33 -3 9
-2 13 4 10 6 -3 10 -12 10 -19z m204 11 c20 -15 19 -49 -2 -53 -7 -1 -8 0 -2
3 16 7 12 40 -6 47 -9 3 -36 6 -60 6 -42 0 -44 -1 -44 -29 0 -28 2 -30 48 -33
42 -3 49 -6 62 -35 8 -18 22 -34 30 -36 12 -4 12 -5 -2 -6 -9 0 -25 15 -37 34
-18 31 -25 35 -60 35 -39 0 -40 -1 -44 -37 -2 -21 -4 -3 -5 40 l-2 77 53 0
c29 0 61 -6 71 -13z m93 -99 c-2 -24 -4 -7 -4 37 0 44 2 63 4 43 2 -21 2 -57
0 -80z m186 105 c3 -5 -14 -6 -37 -5 -29 3 -46 -1 -55 -12 -18 -21 -7 -34 37
-42 40 -7 82 -29 82 -44 0 -32 -91 -55 -128 -31 -7 4 11 6 40 3 42 -3 57 0 67
12 19 22 6 34 -54 49 -58 15 -80 41 -51 63 21 15 91 20 99 7z m162 -63 l64 0
4 38 c2 20 4 1 4 -43 0 -44 -2 -63 -4 -42 l-4 37 -64 0 -64 0 -4 -37 c-2 -21
-4 -2 -4 42 0 44 2 63 4 43 l4 -38 64 0z m288 6 l3 69 2 -77 c1 -43 0 -78 -2
-78 -2 0 -33 30 -68 66 l-63 66 -6 -68 -5 -69 -2 80 -2 79 70 -69 69 -68 4 69z
m194 -11 c23 -41 37 -75 33 -75 -5 0 -12 9 -15 20 -5 17 -15 20 -65 20 -51 0
-60 -3 -65 -21 -4 -11 -9 -18 -12 -15 -6 5 69 146 78 146 3 0 24 -34 46 -75z
m-1141 -31 c4 -13 14 -29 23 -34 15 -9 15 -9 0 -10 -10 0 -25 17 -36 39 -14
27 -16 38 -6 34 7 -3 16 -16 19 -29z m-1156 16 c0 -6 -75 -10 -205 -10 -130 0
-205 4 -205 10 0 6 75 10 205 10 130 0 205 -4 205 -10z m3300 0 c0 -6 -75 -10
-205 -10 -130 0 -205 4 -205 10 0 6 75 10 205 10 130 0 205 -4 205 -10z
m-2013 -217 c21 -50 21 -145 -1 -211 -11 -33 -36 -72 -66 -105 -166 -182 -535
-222 -944 -105 l-109 31 6 65 c4 36 9 67 11 69 2 3 36 -14 75 -36 158 -93 321
-149 453 -158 180 -12 321 45 385 155 23 39 27 58 27 117 0 73 -13 108 -60
171 -13 17 -24 34 -24 37 0 4 52 7 116 7 l115 0 16 -37z m451 -215 l2 -248
-100 0 -100 0 0 250 0 251 98 -3 97 -3 3 -247z m888 -1 l102 -248 -101 3 -102
3 -102 240 c-56 132 -102 244 -103 248 0 4 46 6 102 5 l101 -3 103 -248z"/>
<path d="M1850 2530 l-20 -40 45 0 c25 0 45 2 45 5 0 12 -35 75 -42 75 -4 0
-17 -18 -28 -40z"/>
<path d="M3282 2530 l-23 -40 51 0 51 0 -22 40 c-13 22 -25 40 -28 40 -3 0
-16 -18 -29 -40z"/>
</g>
</svg>
